HIERARCHY
ROOT Hips
{
    OFFSET 0.000000 0.000000 0.000000
    CHANNELS 6 Xposition Yposition Zposition Zrotation Xrotation Yrotation
    JOINT Spine
    {
        OFFSET -0.000000 7.236184 0.000000
        CHANNELS 3 Zrotation Xrotation Yrotation
        JOINT Spine1
        {
            OFFSET -0.000000 20.420147 0.000000
            CHANNELS 3 Zrotation Xrotation Yrotation
            JOINT Neck
            {
                OFFSET -0.000000 20.336288 1.848754
                CHANNELS 3 Zrotation Xrotation Yrotation
                JOINT Head
                {
                    OFFSET -0.000000 12.354461 -1.764923
                    CHANNELS 3 Zrotation Xrotation Yrotation
                    End Site
                    {
                        OFFSET -0.000000 22.061537 0.000000
                    }
                }
            }
            JOINT LeftShoulder
            {
                OFFSET 3.573296 18.396038 -0.314103
                CHANNELS 3 Zrotation Xrotation Yrotation
                JOINT LeftArm
                {
                    OFFSET 10.880760 0.000000 0.000000
                    CHANNELS 3 Zrotation Xrotation Yrotation
                    JOINT LeftForeArm
                    {
                        OFFSET 27.185530 0.000000 0.000000
                        CHANNELS 3 Zrotation Xrotation Yrotation
                        JOINT LeftHand
                        {
                            OFFSET 27.825975 0.000000 0.000000
                            CHANNELS 3 Zrotation Xrotation Yrotation
                            End Site
                            {
                                OFFSET 13.236923 0.000000 0.000000
                            }
                        }
                    }
                }
            }
            JOINT RightShoulder
            {
                OFFSET -3.474926 18.396038 -0.314103
                CHANNELS 3 Zrotation Xrotation Yrotation
                JOINT RightArm
                {
                    OFFSET -10.880760 0.000000 0.000000
                    CHANNELS 3 Zrotation Xrotation Yrotation
                    JOINT RightForeArm
                    {
                        OFFSET -27.185530 0.000000 0.000000
                        CHANNELS 3 Zrotation Xrotation Yrotation
                        JOINT RightHand
                        {
                            OFFSET -27.825975 0.000000 0.000000
                            CHANNELS 3 Zrotation Xrotation Yrotation
                            End Site
                            {
                                OFFSET -13.236923 0.000000 0.000000
                            }
                        }
                    }
                }
            }
        }
    }
    JOINT LeftUpLeg
    {
        OFFSET 8.824615 0.000000 0.000000
        CHANNELS 3 Zrotation Xrotation Yrotation
        JOINT LeftLeg
        {
            OFFSET -0.000000 -35.111282 0.000000
            CHANNELS 3 Zrotation Xrotation Yrotation
            JOINT LeftFoot
            {
                OFFSET -0.000000 -42.324711 0.000000
                CHANNELS 3 Zrotation Xrotation Yrotation
                JOINT LeftToeBase
                {
                    OFFSET -0.000000 -5.735999 13.236923
                    CHANNELS 3 Zrotation Xrotation Yrotation
                    End Site
                    {
                        OFFSET -0.000000 0.000000 3.529846
                    }
                }
            }
        }
    }
    JOINT RightUpLeg
    {
        OFFSET -8.824615 0.000000 0.000000
        CHANNELS 3 Zrotation Xrotation Yrotation
        JOINT RightLeg
        {
            OFFSET -0.000000 -35.111282 0.000000
            CHANNELS 3 Zrotation Xrotation Yrotation
            JOINT RightFoot
            {
                OFFSET -0.000000 -42.324711 0.000000
                CHANNELS 3 Zrotation Xrotation Yrotation
                JOINT RightToeBase
                {
                    OFFSET -0.000000 -5.735999 13.236923
                    CHANNELS 3 Zrotation Xrotation Yrotation
                    End Site
                    {
                        OFFSET -0.000000 0.000000 3.529846
                    }
                }
            }
        }
    }
}
MOTION
Frames:    8
Frame Time:    0.008333
-6.760969    85.257278    93.485214    16.657003    16.205307    -106.227760    -2.349963    -9.705103    -0.754550    3.404068    4.451663    -0.687299    10.482162    27.531931    -20.005144    21.585979    -6.138266    -15.559249    10.528566    0.928880    -8.516046    -27.207327    23.124399    -64.363518    19.725805    -19.972996    -118.836441    23.058950    13.138256    -5.353545    -0.398173    12.945302    -1.895845    30.577948    29.847534    31.104740    -14.803667    0.558209    30.369572    -25.097105    2.338290    10.133848    18.219492    -27.056637    2.412871    1.835923    28.954538    1.114545    2.599290    -11.607594    -8.580231    0.343678    -0.251667    -0.381128    -21.932493    -38.516846    -16.647453    19.061832    52.305420    -15.386051    20.154623    18.185980    -10.317368    -2.146376    0.746814    2.319069    
-6.643221    85.297897    93.496643    16.826963    16.674314    -106.185318    -2.081818    -9.482758    -0.799252    3.793466    4.327355    -0.769911    10.652958    27.469854    -20.166342    21.562405    -6.364407    -15.679739    10.541773    0.934086    -8.655432    -27.255898    22.999975    -64.275543    19.716642    -20.256302    -119.275398    23.399874    13.100998    -5.486073    -0.585016    12.434853    -1.697779    29.766176    29.485174    30.789448    -14.554438    0.615622    29.510366    -24.870985    2.234461    10.114874    18.748180    -27.371599    2.767282    1.899435    29.210400    1.093926    2.709205    -11.522731    -8.684381    0.357877    -0.361537    -0.396953    -23.760536    -39.374744    -17.491755    19.390657    53.616478    -15.569337    19.943081    17.796947    -10.273890    -2.152388    0.825548    2.325317    
-6.524202    85.337860    93.506035    17.003588    17.159220    -106.118202    -1.790617    -9.259104    -0.840683    4.183402    4.204914    -0.849287    10.823053    27.410954    -20.342146    21.551834    -6.597671    -15.811803    10.554985    0.948625    -8.792830    -27.319122    22.882803    -64.196922    19.702238    -20.524157    -119.710182    23.741358    13.068749    -5.622927    -0.772400    11.928935    -1.501628    28.966616    29.144444    30.450382    -14.307391    0.673976    28.636110    -24.639805    2.134567    10.098418    19.289858    -27.712074    3.163136    1.975481    29.482273    1.057115    2.828341    -11.437422    -8.794827    0.373886    -0.476103    -0.414796    -25.659473    -40.145016    -18.326405    19.655592    54.797401    -15.694860    19.698778    17.379259    -10.259414    -2.157809    0.855622    2.331078    
-6.403137    85.376968    93.513451    17.187490    17.659552    -106.028465    -1.476245    -9.033409    -0.877976    4.574321    4.082882    -0.924558    10.992045    27.355911    -20.532331    21.555368    -6.840154    -15.954535    10.567281    0.972725    -8.928415    -27.394091    22.774607    -64.126228    19.684135    -20.780876    -120.141220    24.084021    13.040395    -5.763066    -0.961379    11.427465    -1.306528    28.179562    28.817495    30.085859    -14.057106    0.736220    27.745668    -24.404039    2.040121    10.083740    19.846331    -28.078775    3.604673    2.061848    29.769846    1.011139    2.955220    -11.352927    -8.912658    0.392635    -0.594002    -0.435691    -27.632101    -40.824566    -19.153572    19.839809    55.841328    -15.743408    19.427238    16.942181    -10.275688    -2.162522    0.841826    2.336214    
-6.280371    85.414551    93.518829    17.377720    18.169785    -105.919487    -1.141507    -8.807611    -0.910015    4.961999    3.961444    -0.993825    11.159975    27.306747    -20.735197    21.573328    -7.092852    -16.105434    10.578529    1.006733    -9.061241    -27.477785    22.677637    -64.063019    19.664333    -21.028091    -120.564438    24.426146    13.015145    -5.904369    -1.150348    10.935164    -1.113559    27.412413    28.499784    29.697861    -13.801522    0.803398    26.846573    -24.166428    1.952801    10.070109    20.414005    -28.468843    4.092465    2.155829    30.070208    0.962929    3.087065    -11.271992    -9.037095    0.414474    -0.712548    -0.460024    -29.660978    -41.404575    -19.965523    19.925322    56.730904    -15.697346    19.134249    16.498247    -10.323477    -2.165873    0.787669    2.340005    
-6.155216    85.450233    93.522141    17.574812    18.688517    -105.794197    -0.787072    -8.582096    -0.935928    5.346117    3.840484    -1.056261    11.326587    27.263649    -20.950041    21.606382    -7.356664    -16.263447    10.588202    1.050660    -9.191500    -27.567759    22.592554    -64.005493    19.643732    -21.269072    -120.980530    24.767992    12.991962    -6.045811    -1.340350    10.452135    -0.921840    26.665907    28.183290    29.285946    -13.536474    0.877177    25.938000    -23.928469    1.873402    10.056541    20.994158    -28.881933    4.630482    2.255068    30.382444    0.919119    3.222556    -11.196688    -9.167569    0.439891    -0.830128    -0.488339    -31.744595    -41.883366    -20.761049    19.896891    57.458576    -15.540169    18.821405    16.055477    -10.403994    -2.166081    0.696704    2.340518    
-6.028236    85.483292    93.523285    17.777485    19.209093    -105.657265    -0.416966    -8.360068    -0.954499    5.721869    3.722085    -1.110100    11.491686    27.227232    -21.174366    21.653679    -7.630398    -16.426081    10.595854    1.104290    -9.317769    -27.660610    22.519938    -63.953289    19.623241    -21.503841    -121.385849    25.107643    12.970302    -6.185316    -1.529856    9.983082    -0.732923    25.947151    27.864294    28.854609    -13.261953    0.956797    25.027821    -23.693596    1.802323    10.041753    21.582357    -29.313175    5.217155    2.356312    30.702417    0.886244    3.359445    -11.130086    -9.301003    0.468869    -0.944048    -0.520616    -33.859379    -42.255974    -21.529690    19.742773    58.009670    -15.261353    18.491564    15.624899    -10.516779    -2.160849    0.571572    2.335260    
-5.898984    85.513321    93.522179    17.986065    19.729286    -105.512596    -0.032541    -8.143095    -0.964979    6.088089    3.608003    -1.154652    11.654387    27.197149    -21.406649    21.716097    -7.913249    -16.591873    10.601995    1.167171    -9.439392    -27.755869    22.458956    -63.904720    19.602694    -21.733088    -121.781357    25.445179    12.949591    -6.322804    -1.720167    9.528262    -0.546307    25.256981    27.535633    28.405846    -12.975540    1.042127    24.115358    -23.463488    1.739114    10.024766    22.179199    -29.760660    5.854618    2.457191    31.028730    0.869873    3.497365    -11.074771    -9.434753    0.502001    -1.053007    -0.557516    -35.998940    -42.523529    -22.268337    19.455170    58.377621    -14.853754    18.144058    15.212838    -10.661482    -2.147270    0.415551    2.321078    
